<svg width="22" height="22" viewBox="0 0 22 22" fill="none" xmlns="http://www.w3.org/2000/svg">
<path fill-rule="evenodd" clip-rule="evenodd" d="M9.3352 5.16182C9.87531 5.0547 10.4332 5 11.0022 5C11.5734 5 12.1291 5.0547 12.6692 5.16182C12.6537 5.23248 12.6448 5.30314 12.6448 5.37835V9.40573C12.6448 9.90944 13.0426 10.3174 13.5338 10.3174C14.0251 10.3174 14.4229 9.90944 14.4229 9.40573V5.70656C17.2991 6.95101 19.3995 9.71574 19.7662 13.0159H20.4508C20.862 13.0159 21.2554 13.1823 21.5466 13.4808C21.8377 13.7794 22 14.1828 22 14.6045V16.3914C22 16.7265 21.7355 17 21.4065 17H0.593472C0.266738 17 0 16.7288 0 16.3914V14.6045C0 14.1828 0.164476 13.7794 0.453428 13.4808C0.744599 13.1823 1.138 13.0159 1.54922 13.0159H2.23379C2.60053 9.71556 4.70093 6.95055 7.57708 5.70656V9.40573C7.57708 9.90944 7.97494 10.3174 8.46615 10.3174C8.95736 10.3174 9.35522 9.90944 9.35522 9.40573V5.37835C9.35522 5.30313 9.34633 5.2302 9.33077 5.16182H9.3352Z" fill="black"/>
</svg>
