<svg width="22" height="22" viewBox="0 0 22 22" fill="none" xmlns="http://www.w3.org/2000/svg">
<path fill-rule="evenodd" clip-rule="evenodd" d="M11 0C17.1058 0 22 4.89543 22 10.9992C22 17.0593 17.1058 22 11 22C4.93948 22 0 17.0593 0 10.9992C0 4.89543 4.93948 0 11 0ZM14.3113 9.41495L18.7858 10.6266C18.6434 6.47784 15.1943 3.17027 10.9999 3.17027C6.84958 3.17027 3.40028 6.47977 3.21391 10.6266L7.69006 9.41495C8.29439 8.15628 9.60168 7.31871 10.9998 7.31871C12.4449 7.31871 13.7038 8.15624 14.3113 9.41495ZM18.2254 13.9361L14.1705 12.8167C13.7978 13.4241 13.2843 13.8907 12.6784 14.2147V18.5968C15.1959 18.0394 17.2923 16.3141 18.2254 13.9361ZM7.87667 12.8167L3.77487 13.9361C4.75339 16.3125 6.84978 18.0376 9.36886 18.5982V14.2162C8.71756 13.8906 8.20393 13.4257 7.87667 12.8167Z" fill="#19132F"/>
</svg>
