<svg width="22" height="22" viewBox="0 0 22 22" fill="none" xmlns="http://www.w3.org/2000/svg">
<path d="M19.946 5.23604V5.23333C19.7935 4.04448 19.3031 3.04428 18.2261 2.48378C16.1885 1.42318 14.3542 2.35825 12.4864 2.90246C12.0095 3.04088 11.5051 3.11078 11 3.11078C10.4949 3.11078 9.99054 3.04156 9.51357 2.90246C7.64584 2.35825 5.81155 1.42318 3.7739 2.48378C2.69687 3.04428 2.20652 4.04448 2.054 5.23333V5.23604C1.73223 7.75895 2.93502 11.1959 3.3772 12.9147C3.77189 14.4469 4.8944 21.6567 8.0539 20.9516C11.2897 20.2296 8.13217 13.4562 11 13.4677C13.8678 13.4562 10.7103 20.2296 13.9461 20.9509C17.1056 21.656 18.2281 14.4462 18.6228 12.914C19.065 11.1959 20.2678 7.75895 19.946 5.23604Z" fill="#19132F"/>
</svg>
