<svg width="6" height="14" viewBox="0 0 6 14" fill="none" xmlns="http://www.w3.org/2000/svg">
<path d="M3.47062 0C4.44739 0 5.2288 0.84153 5.2288 1.86157C5.2288 2.8816 4.42297 3.72313 3.47062 3.72313C2.49385 3.72313 1.68801 2.8816 1.68801 1.83607C1.68801 0.816029 2.49385 0 3.47062 0ZM5.9858 12.4699C5.93696 12.623 5.83929 12.8015 5.74161 12.9035C5.10671 13.592 4.32529 14 3.39736 14C2.95781 14 2.54268 14 2.10314 13.9235C1.39498 13.8215 0.491467 12.9035 0.613563 11.9344C0.71124 11.2714 0.808917 10.6084 0.906594 9.94536C1.10195 8.79781 1.2973 7.62477 1.49266 6.47723C1.49266 6.40073 1.51708 6.32423 1.51708 6.24772C1.51708 5.76321 1.37056 5.5847 0.906594 5.5337C0.71124 5.5082 0.515886 5.4827 0.320532 5.43169C0.100758 5.35519 -0.021338 5.15118 0.00308128 4.97268C0.0275005 4.76867 0.149596 4.64117 0.393789 4.59016C0.515885 4.56466 0.662401 4.56466 0.808917 4.56466C1.34614 4.56466 1.88336 4.56466 2.44501 4.56466C3.03107 4.56466 3.59271 4.56466 4.17878 4.56466C4.5939 4.56466 4.8381 4.76867 4.8381 5.20219C4.8381 5.5592 4.78926 5.91621 4.716 6.27322C4.49623 7.59927 4.25203 8.89982 4.03226 10.2259C3.959 10.6594 3.86132 11.0929 3.81249 11.5264C3.78807 11.7304 3.81249 11.9599 3.86133 12.1639C3.93458 12.4444 4.12994 12.5975 4.39855 12.572C4.61832 12.5464 4.8381 12.4699 5.05787 12.3679C5.2288 12.2914 5.37532 12.1639 5.54626 12.1129C5.83929 12.0109 6.05906 12.1894 5.9858 12.4699Z" fill="black"/>
</svg>
