<svg width="216" height="28" viewBox="0 0 216 28" fill="none" xmlns="http://www.w3.org/2000/svg">
<path d="M108.008 8.42676C108.043 8.39289 111.165 5.41271 117.956 6.97949V6.99121C125.378 8.70722 128.757 20.2504 120.86 25.7012C112.916 31.1869 108.055 25.1299 108.055 25.1299H107.07L105.755 27.0322H99.7314V0.863281H108.008V8.42676ZM198.62 8.42676C198.637 8.41087 201.757 5.40802 208.568 6.97949V6.99121C215.991 8.70697 219.37 20.2503 211.474 25.7012C203.559 31.1668 198.704 25.1741 198.668 25.1299H197.684L196.367 27.0322H190.344V0.863281H198.62V8.42676ZM14.9756 0C16.4339 0 17.7618 0.151674 18.9355 0.455078C20.1093 0.758521 21.1768 1.15535 22.1016 1.64551C23.0383 2.13573 23.8569 2.69584 24.5684 3.31445C25.2679 3.93305 25.8847 4.57491 26.3945 5.22852C27.6039 6.76918 28.4692 8.49698 29.0146 10.4111H21.7109C21.379 9.67583 20.9046 9.02206 20.2881 8.43848C19.7782 7.9366 19.0901 7.47003 18.2246 7.06152C17.3709 6.64133 16.2799 6.43066 14.9756 6.43066C13.873 6.43067 12.8652 6.61774 11.9404 6.97949C11.0156 7.34132 10.2324 7.85516 9.56836 8.50879C8.91636 9.16234 8.40672 9.95607 8.02734 10.8896C7.65982 11.8233 7.46978 12.8621 7.46973 13.9941C7.46973 15.1263 7.65977 16.1658 8.02734 17.0996C8.39488 18.0332 8.91635 18.8269 9.56836 19.4805C10.2205 20.1341 11.0156 20.6479 11.9404 21.0098C12.8652 21.3715 13.873 21.5576 14.9756 21.5576C16.434 21.5576 17.6078 21.3243 18.4971 20.8574C19.3862 20.3906 20.074 19.8657 20.5957 19.2822C21.1886 18.6286 21.6158 17.8696 21.9004 17.0059H29.2041C28.6112 19.0718 27.6988 20.9048 26.4775 22.4922C25.9677 23.1691 25.3502 23.8455 24.627 24.5107C23.9038 25.1759 23.0744 25.7716 22.126 26.2734C21.1774 26.7753 20.1094 27.1839 18.9355 27.499C17.7499 27.8141 16.4339 27.9775 14.9756 27.9775V27.9893C12.7702 27.9893 10.7421 27.627 8.9043 26.915C7.06682 26.2031 5.47806 25.2115 4.16211 23.9629C2.84601 22.714 1.81411 21.2431 1.09082 19.5391C0.355673 17.835 0 15.9901 0 13.9941C5.59784e-05 11.9984 0.367586 10.1542 1.09082 8.4502C1.82596 6.74615 2.846 5.27523 4.16211 4.02637C5.47814 2.77765 7.06667 1.79684 8.9043 1.07324C10.7421 0.349586 12.7702 7.26876e-06 14.9756 0ZM136.666 6.69922C149.484 6.09228 149.01 19.0488 149.01 19.0488C149.27 25.3632 142.05 30.2419 133.192 26.542C123.719 22.5852 124.252 7.30649 136.666 6.71094V6.69922ZM64.3848 6.96777C65.3806 6.96777 66.258 7.14307 67.0049 7.48145C67.7519 7.81993 68.3808 8.19402 68.8906 8.60254C69.4833 9.05765 69.9693 9.58268 70.3486 10.1895H70.7285V7.54004H77.2617V27.2188H70.7285V24.5693H70.3486C69.9693 25.1995 69.4715 25.7479 68.8906 26.1914C68.3808 26.5999 67.7519 26.9622 67.0049 27.2891C66.258 27.6158 65.3925 27.7793 64.3848 27.7793V27.8027C63.1754 27.8027 62.0486 27.5576 60.9814 27.0791C59.9144 26.6006 58.9781 25.9114 58.1719 25.0127C57.3657 24.114 56.7252 23.0288 56.251 21.7334C55.7767 20.4496 55.5391 18.9905 55.5391 17.3799C55.5391 15.7691 55.7767 14.3093 56.251 13.0254C56.7252 11.7417 57.3657 10.6448 58.1719 9.75781C58.9781 8.85913 59.9144 8.16995 60.9814 7.69141C62.0486 7.21286 63.1754 6.96778 64.3848 6.96777ZM38.8086 10.2012H39.1885C39.5441 9.59443 40.0063 9.06936 40.5752 8.61426C41.0613 8.2058 41.678 7.83161 42.4248 7.49316C43.1718 7.15469 44.0734 6.9795 45.1523 6.97949C47.4882 6.97949 49.3144 7.6686 50.6543 9.0459C51.9822 10.4232 52.6582 12.4425 52.6582 15.127V27.2422H46.125V16.0723C46.125 14.9402 45.8166 14.0531 45.2002 13.4229C44.5836 12.7926 43.7411 12.4775 42.6621 12.4775C41.5833 12.4776 40.6706 12.8743 39.9355 13.6562C39.2004 14.4383 38.8203 15.5004 38.8203 16.8311V27.2422H32.2871V0.735352H38.8086V10.2012ZM88.7988 7.54004H93.9922V12.6523H88.7988V22.1182H94.3721V27.2305H82.2539V12.6523H79.7637V7.54004H82.2656V3.37305H88.7988V7.54004ZM163.108 8.8125C165.136 6.875 173.187 4.30694 174.23 9.60547C174.313 10.0489 174.36 10.5511 174.372 11.0762C174.74 10.7027 175.439 9.99109 176.648 8.82422C178.676 6.88673 186.727 4.31874 187.771 9.61719L187.783 9.59473C188.826 14.8941 184.226 27.1143 184.226 27.1143H174.799C174.799 27.1143 179.293 16.2595 180.49 12.9326C181.688 9.6061 180.562 7.63357 177.111 10.2598C175.795 11.2634 174.906 12.2672 174.313 13.1191C173.744 18.9902 170.685 27.1143 170.685 27.1143H161.258C161.258 27.1143 165.751 16.2595 166.949 12.9326C168.147 9.6061 167.021 7.63357 163.57 10.2598C160.144 12.8679 159.617 15.453 159.61 15.4883V27.1143H151.464V6.61816L159.468 6.57129V11.4385H160.487C160.487 11.4385 161.081 10.7617 163.108 8.8125ZM140.164 16.376C138.421 11.7778 135.956 8.42773 134.675 8.90527C133.394 9.38383 133.762 13.493 135.517 18.0918C137.259 22.6901 139.725 26.0396 141.006 25.5615C142.286 25.083 141.907 20.9747 140.164 16.376ZM116.96 16.3643C115.217 11.7655 112.75 8.4151 111.47 8.89355C110.189 9.37211 110.569 13.4813 112.312 18.0801C114.055 22.6787 116.521 26.0283 117.802 25.5498C119.082 25.0709 118.703 20.9627 116.96 16.3643ZM207.572 16.3643C205.829 11.7661 203.364 8.41605 202.083 8.89355C200.802 9.37211 201.182 13.4813 202.925 18.0801C204.668 22.6784 207.133 26.0279 208.414 25.5498C209.695 25.0713 209.327 20.963 207.572 16.3643ZM66.4951 12.4658C65.2384 12.4659 64.219 12.8862 63.4365 13.7148C62.654 14.5436 62.2627 15.7692 62.2627 17.3916C62.2628 19.0137 62.6541 20.2271 63.4365 21.0674C64.219 21.896 65.2384 22.3163 66.4951 22.3164C67.752 22.3164 68.7721 21.8961 69.5547 21.0674C70.337 20.2388 70.7284 19.0136 70.7285 17.3916C70.7285 15.7694 70.3371 14.5552 69.5547 13.7148C68.7721 12.8745 67.752 12.4658 66.4951 12.4658Z" fill="#19132F"/>
</svg>
